# xmcd CD database file
#
# Track frame offsets:
#	150
#	11875
#	26192
#	42210
#	55685
#	63570
#	79940
#	91575
#	104680
#	115605
#	128615
#	139922
#	160032
#	171402
#	186317
#	197455
#	207692
#	218682
#	240620
#	257092
#
# Disc length: 3629 seconds
#
# Revision: 0
# Processed by: cddbd v1.4PL0 Copyright (c) Steve Scherf et al.
# Submitted via: CDex 1.50
#
DISCID=1d0e2b14
DTITLE=Albert Mangelsdorff - Die Opa Hirchleitner Story
DYEAR=1958
DGENRE=Jazz
TTITLE0=Kanto Schilchen's Choral
TTITLE1=Hirchie At Mahogany Hall
TTITLE2=Ceiling Breakdown
TTITLE3=Bollhausen Blues
TTITLE4=Dave's Idea
TTITLE5=Dusk's Absence
TTITLE6=Swing It, Sam
TTITLE7=Sound For Jazztone
TTITLE8=Beard's Beard
TTITLE9=Golabski
TTITLE10=You're On Hans
TTITLE11=Rhein-Main Jump
TTITLE12=Almost Dawn
TTITLE13=Old Hat With A New Rim
TTITLE14=Adlon 1925
TTITLE15=Ending Ad Lib
TTITLE16=Ball For Dusko
TTITLE17=C. T. A.
TTITLE18=Short And Swift
TTITLE19=For Sahib
EXTD=YEAR: 1958
EXTT0=
EXTT1=
EXTT2=
EXTT3=
EXTT4=
EXTT5=
EXTT6=
EXTT7=
EXTT8=
EXTT9=
EXTT10=
EXTT11=
EXTT12=
EXTT13=
EXTT14=
EXTT15=
EXTT16=
EXTT17=
EXTT18=
EXTT19=
PLAYORDER=
